<?xml version="1.0" encoding="UTF-8" standalone="no"?>
<!-- Created with Inkscape (http://www.inkscape.org/) -->

<svg
   xmlns:dc="http://purl.org/dc/elements/1.1/"
   xmlns:cc="http://creativecommons.org/ns#"
   xmlns:rdf="http://www.w3.org/1999/02/22-rdf-syntax-ns#"
   xmlns:svg="http://www.w3.org/2000/svg"
   xmlns="http://www.w3.org/2000/svg"
   xmlns:sodipodi="http://sodipodi.sourceforge.net/DTD/sodipodi-0.dtd"
   xmlns:inkscape="http://www.inkscape.org/namespaces/inkscape"
   width="512"
   height="512"
   viewBox="0 0 135.46667 135.46666"
   version="1.1"
   id="svg8"
   inkscape:export-filename="/home/dmpop/favicon.png"
   inkscape:export-xdpi="100.01861"
   inkscape:export-ydpi="100.01861"
   inkscape:version="0.92.5 (2060ec1f9f, 2020-04-08)"
   sodipodi:docname="favicon.svg">
  <defs
     id="defs2">
    <inkscape:perspective
       sodipodi:type="inkscape:persp3d"
       inkscape:vp_x="0 : 65.0119 : 1"
       inkscape:vp_y="0 : 1000 : 0"
       inkscape:vp_z="103.56548 : -49.136904 : 1"
       inkscape:persp3d-origin="65.011905 : 43.341267 : 1"
       id="perspective9439" />
    <symbol
       id="Coffeeshop_Inv">
      <title
         id="title1729">Coffeeshop</title>
      <rect
         x="0.13229166"
         y="0.13229166"
         width="18.785418"
         height="18.785418"
         ry="1.5875"
         style="stroke:#ffffff;stroke-width:0.26458332"
         id="rect1731" />
      <g
         style="fill:#ffffff;fill-rule:evenodd;stroke:none"
         id="g1737">
        <path
           style="stroke-width:0.26458332"
           inkscape:connector-curvature="0"
           d="m 5.2916667,11.90625 a 1.3229167,1.3229167 0 0 0 1.3229166,1.322917 h 5.8208337 a 1.3229167,1.3229167 0 0 0 1.322916,-1.322917 v -0.264583 h 0.264584 a 2.6458335,2.6458335 0 0 0 0,-5.291667 H 5.2916667 Z M 13.758333,7.4083333 v 3.1749997 h 0.264584 a 1.5875,1.5875 0 0 0 0,-3.1749997 z"
           id="path1733" />
        <path
           style="stroke-width:0.26458332"
           inkscape:connector-curvature="0"
           d="m 2.1166667,13.758333 a 1.5875,1.5875 0 0 0 1.5875,1.5875 H 15.345833 a 1.5875,1.5875 0 0 0 1.5875,-1.5875 z"
           id="path1735" />
      </g>
    </symbol>
    <symbol
       id="Coffeeshop">
      <title
         id="title1720">Coffeeshop</title>
      <g
         style="fill-rule:evenodd;stroke:none"
         id="g1726">
        <path
           style="stroke-width:0.26458332"
           inkscape:connector-curvature="0"
           d="m 5.2916667,11.90625 a 1.3229167,1.3229167 0 0 0 1.3229166,1.322917 h 5.8208337 a 1.3229167,1.3229167 0 0 0 1.322916,-1.322917 v -0.264583 h 0.264584 a 2.6458335,2.6458335 0 0 0 0,-5.291667 H 5.2916667 Z M 13.758333,7.4083333 v 3.1749997 h 0.264584 a 1.5875,1.5875 0 0 0 0,-3.1749997 z"
           id="path1722" />
        <path
           style="stroke-width:0.26458332"
           inkscape:connector-curvature="0"
           d="m 2.1166667,13.758333 a 1.5875,1.5875 0 0 0 1.5875,1.5875 H 15.345833 a 1.5875,1.5875 0 0 0 1.5875,-1.5875 z"
           id="path1724" />
      </g>
    </symbol>
  </defs>
  <sodipodi:namedview
     id="base"
     pagecolor="#ffffff"
     bordercolor="#666666"
     borderopacity="1.0"
     inkscape:pageopacity="0.0"
     inkscape:pageshadow="2"
     inkscape:zoom="0.35"
     inkscape:cx="-104.43531"
     inkscape:cy="613.10774"
     inkscape:document-units="mm"
     inkscape:current-layer="layer1"
     showgrid="false"
     fit-margin-top="0"
     fit-margin-left="0"
     fit-margin-right="0"
     fit-margin-bottom="0"
     inkscape:window-width="2560"
     inkscape:window-height="1377"
     inkscape:window-x="0"
     inkscape:window-y="0"
     inkscape:window-maximized="1"
     units="px" />
  <metadata
     id="metadata5">
    <rdf:RDF>
      <cc:Work
         rdf:about="">
        <dc:format>image/svg+xml</dc:format>
        <dc:type
           rdf:resource="http://purl.org/dc/dcmitype/StillImage" />
        <dc:title></dc:title>
      </cc:Work>
    </rdf:RDF>
  </metadata>
  <g
     inkscape:label="Layer 1"
     inkscape:groupmode="layer"
     id="layer1"
     transform="translate(535.70832,-175.58477)">
    <path
       style="fill:#d7e3f4;fill-opacity:1;stroke:none;stroke-width:0.2530168;stroke-miterlimit:4;stroke-dasharray:none;stroke-opacity:1"
       d="m -420.26324,261.75219 c 0,26.35048 -21.36127,47.71175 -47.71174,47.71175 -26.35048,0 -47.71175,-21.36127 -47.71175,-47.71175 0,-26.35048 31.48196,-84.57992 47.71175,-84.57992 16.22978,0 47.71174,58.22944 47.71174,84.57992 z"
       id="path835-6-7-3"
       inkscape:connector-curvature="0"
       sodipodi:nodetypes="sssss" />
    <path
       style="fill:#87aade;fill-opacity:1;stroke:none;stroke-width:0.19883232;stroke-miterlimit:4;stroke-dasharray:none;stroke-opacity:1"
       d="m -430.48088,262.38389 c 0,20.70743 -16.78668,37.4941 -37.49411,37.4941 -20.70743,0 -37.4941,-16.78667 -37.4941,-37.4941 0,-20.70742 24.73998,-66.46683 37.4941,-66.46683 12.75412,0 37.49411,45.75941 37.49411,66.46683 z"
       id="path835-6-7"
       inkscape:connector-curvature="0"
       sodipodi:nodetypes="sssss" />
    <path
       style="fill:#2a7fff;fill-opacity:1;stroke:none;stroke-width:0.12167855;stroke-miterlimit:4;stroke-dasharray:none;stroke-opacity:1"
       d="m -445.02989,264.7011 c 0,12.67223 -10.27287,22.9451 -22.9451,22.9451 -12.67223,0 -22.9451,-10.27287 -22.9451,-22.9451 0,-12.67223 15.14001,-40.6754 22.94509,-40.6754 7.80508,0 22.9451,28.00317 22.94511,40.6754 z"
       id="path835-3-5"
       inkscape:connector-curvature="0"
       sodipodi:nodetypes="sssss" />
  </g>
</svg>
